<svg width="1978" height="1080" viewBox="0 0 1978 1080" fill="none" xmlns="http://www.w3.org/2000/svg">
<rect width="1978" height="1080" fill="url(#paint0_linear_1_14)"/>
<path d="M238 467.822C588.01 410.177 760.266 588.145 796 875" stroke="url(#paint1_linear_1_14)" stroke-width="40"/>
<path d="M247.864 635.927C588.297 567.076 732.388 490.482 851.595 241.948" stroke="url(#paint2_linear_1_14)" stroke-width="40"/>
<path d="M287.338 735.874C603.856 746.856 770.846 698.694 970.25 450.167" stroke="url(#paint3_linear_1_14)" stroke-width="40"/>
<circle cx="610" cy="540" r="382" stroke="url(#paint4_linear_1_14)" stroke-width="50"/>
<path d="M1174.55 389.781C1174.05 388.053 1173.35 386.526 1172.45 385.2C1171.55 383.851 1170.45 382.714 1169.15 381.791C1167.87 380.844 1166.4 380.122 1164.74 379.625C1163.11 379.128 1161.3 378.879 1159.31 378.879C1155.59 378.879 1152.33 379.803 1149.51 381.649C1146.72 383.496 1144.54 386.183 1142.98 389.71C1141.41 393.214 1140.63 397.499 1140.63 402.565C1140.63 407.632 1141.4 411.94 1142.94 415.491C1144.48 419.043 1146.66 421.753 1149.47 423.624C1152.29 425.47 1155.62 426.393 1159.45 426.393C1162.93 426.393 1165.9 425.778 1168.37 424.547C1170.85 423.292 1172.75 421.528 1174.05 419.256C1175.37 416.983 1176.04 414.296 1176.04 411.195L1179.16 411.656H1160.41V400.08H1190.85V409.241C1190.85 415.634 1189.5 421.126 1186.8 425.719C1184.1 430.288 1180.38 433.815 1175.65 436.301C1170.91 438.763 1165.49 439.994 1159.38 439.994C1152.56 439.994 1146.57 438.491 1141.41 435.484C1136.25 432.454 1132.23 428.157 1129.34 422.594C1126.47 417.007 1125.04 410.378 1125.04 402.707C1125.04 396.812 1125.89 391.557 1127.6 386.94C1129.33 382.3 1131.74 378.37 1134.84 375.151C1137.95 371.931 1141.56 369.481 1145.67 367.8C1149.79 366.119 1154.26 365.278 1159.06 365.278C1163.18 365.278 1167.02 365.882 1170.57 367.089C1174.12 368.273 1177.27 369.954 1180.01 372.132C1182.78 374.31 1185.04 376.902 1186.8 379.909C1188.55 382.892 1189.67 386.183 1190.17 389.781H1174.55ZM1226.76 440.065C1221.24 440.065 1216.47 438.893 1212.44 436.55C1208.44 434.182 1205.35 430.892 1203.18 426.678C1201 422.44 1199.91 417.527 1199.91 411.94C1199.91 406.306 1201 401.382 1203.18 397.168C1205.35 392.93 1208.44 389.639 1212.44 387.295C1216.47 384.928 1221.24 383.744 1226.76 383.744C1232.27 383.744 1237.03 384.928 1241.03 387.295C1245.06 389.639 1248.16 392.93 1250.34 397.168C1252.51 401.382 1253.6 406.306 1253.6 411.94C1253.6 417.527 1252.51 422.44 1250.34 426.678C1248.16 430.892 1245.06 434.182 1241.03 436.55C1237.03 438.893 1232.27 440.065 1226.76 440.065ZM1226.83 428.347C1229.34 428.347 1231.43 427.636 1233.11 426.216C1234.79 424.772 1236.06 422.807 1236.91 420.321C1237.79 417.835 1238.23 415.006 1238.23 411.834C1238.23 408.661 1237.79 405.832 1236.91 403.347C1236.06 400.861 1234.79 398.896 1233.11 397.452C1231.43 396.008 1229.34 395.286 1226.83 395.286C1224.29 395.286 1222.16 396.008 1220.44 397.452C1218.73 398.896 1217.44 400.861 1216.56 403.347C1215.71 405.832 1215.29 408.661 1215.29 411.834C1215.29 415.006 1215.71 417.835 1216.56 420.321C1217.44 422.807 1218.73 424.772 1220.44 426.216C1222.16 427.636 1224.29 428.347 1226.83 428.347ZM1278.57 407.466V439H1263.44V384.455H1277.86V394.078H1278.5C1279.7 390.906 1281.73 388.396 1284.57 386.55C1287.41 384.679 1290.85 383.744 1294.9 383.744C1298.69 383.744 1301.99 384.573 1304.81 386.23C1307.63 387.887 1309.82 390.255 1311.38 393.332C1312.94 396.386 1313.72 400.032 1313.72 404.27V439H1298.6V406.969C1298.62 403.631 1297.77 401.027 1296.04 399.156C1294.31 397.262 1291.93 396.315 1288.9 396.315C1286.86 396.315 1285.07 396.753 1283.5 397.629C1281.96 398.505 1280.76 399.784 1279.88 401.464C1279.03 403.122 1278.59 405.122 1278.57 407.466ZM1339.35 423.304L1339.39 405.158H1341.59L1359.06 384.455H1376.43L1352.95 411.869H1349.37L1339.35 423.304ZM1325.65 439V366.273H1340.77V439H1325.65ZM1359.74 439L1343.69 415.243L1353.77 404.554L1377.46 439H1359.74ZM1399.4 440.03C1395.92 440.03 1392.82 439.426 1390.1 438.219C1387.38 436.988 1385.22 435.177 1383.64 432.786C1382.07 430.371 1381.29 427.364 1381.29 423.766C1381.29 420.735 1381.85 418.19 1382.96 416.131C1384.07 414.071 1385.59 412.414 1387.51 411.159C1389.42 409.904 1391.6 408.957 1394.04 408.318C1396.5 407.679 1399.08 407.229 1401.78 406.969C1404.96 406.637 1407.51 406.33 1409.45 406.045C1411.39 405.738 1412.8 405.288 1413.68 404.696C1414.55 404.104 1414.99 403.228 1414.99 402.068V401.855C1414.99 399.606 1414.28 397.866 1412.86 396.635C1411.47 395.404 1409.48 394.788 1406.9 394.788C1404.17 394.788 1402.01 395.392 1400.4 396.599C1398.79 397.783 1397.72 399.275 1397.2 401.074L1383.21 399.938C1383.92 396.623 1385.32 393.759 1387.4 391.344C1389.48 388.905 1392.17 387.035 1395.46 385.733C1398.78 384.407 1402.61 383.744 1406.97 383.744C1410 383.744 1412.9 384.099 1415.67 384.81C1418.46 385.52 1420.94 386.621 1423.09 388.112C1425.27 389.604 1426.98 391.521 1428.24 393.865C1429.49 396.185 1430.12 398.967 1430.12 402.21V439H1415.77V431.436H1415.35C1414.47 433.141 1413.3 434.644 1411.83 435.946C1410.36 437.224 1408.6 438.231 1406.54 438.964C1404.48 439.675 1402.1 440.03 1399.4 440.03ZM1403.74 429.589C1405.96 429.589 1407.93 429.152 1409.63 428.276C1411.34 427.376 1412.67 426.169 1413.64 424.653C1414.61 423.138 1415.1 421.422 1415.1 419.504V413.716C1414.63 414.024 1413.97 414.308 1413.15 414.568C1412.34 414.805 1411.43 415.03 1410.41 415.243C1409.39 415.432 1408.38 415.61 1407.36 415.776C1406.34 415.918 1405.42 416.048 1404.59 416.166C1402.81 416.427 1401.26 416.841 1399.94 417.409C1398.61 417.977 1397.58 418.747 1396.85 419.717C1396.11 420.664 1395.75 421.848 1395.75 423.268C1395.75 425.328 1396.49 426.902 1397.98 427.991C1399.5 429.057 1401.42 429.589 1403.74 429.589ZM1450.7 439.923C1448.36 439.923 1446.34 439.095 1444.66 437.438C1443.01 435.757 1442.18 433.744 1442.18 431.401C1442.18 429.08 1443.01 427.092 1444.66 425.435C1446.34 423.777 1448.36 422.949 1450.7 422.949C1452.97 422.949 1454.96 423.777 1456.67 425.435C1458.37 427.092 1459.22 429.08 1459.22 431.401C1459.22 432.963 1458.82 434.395 1458.01 435.697C1457.23 436.976 1456.2 438.006 1454.93 438.787C1453.65 439.545 1452.24 439.923 1450.7 439.923ZM1488.3 439L1467.49 366.273H1484.28L1496.32 416.805H1496.93L1510.21 366.273H1524.59L1537.84 416.912H1538.47L1550.51 366.273H1567.31L1546.5 439H1531.51L1517.67 391.45H1517.1L1503.28 439H1488.3ZM1584.95 440.03C1581.47 440.03 1578.37 439.426 1575.65 438.219C1572.92 436.988 1570.77 435.177 1569.18 432.786C1567.62 430.371 1566.84 427.364 1566.84 423.766C1566.84 420.735 1567.4 418.19 1568.51 416.131C1569.62 414.071 1571.14 412.414 1573.05 411.159C1574.97 409.904 1577.15 408.957 1579.59 408.318C1582.05 407.679 1584.63 407.229 1587.33 406.969C1590.5 406.637 1593.06 406.33 1595 406.045C1596.94 405.738 1598.35 405.288 1599.23 404.696C1600.1 404.104 1600.54 403.228 1600.54 402.068V401.855C1600.54 399.606 1599.83 397.866 1598.41 396.635C1597.01 395.404 1595.02 394.788 1592.44 394.788C1589.72 394.788 1587.55 395.392 1585.94 396.599C1584.33 397.783 1583.27 399.275 1582.75 401.074L1568.76 399.938C1569.47 396.623 1570.86 393.759 1572.95 391.344C1575.03 388.905 1577.72 387.035 1581.01 385.733C1584.32 384.407 1588.16 383.744 1592.51 383.744C1595.54 383.744 1598.44 384.099 1601.21 384.81C1604.01 385.52 1606.48 386.621 1608.64 388.112C1610.81 389.604 1612.53 391.521 1613.79 393.865C1615.04 396.185 1615.67 398.967 1615.67 402.21V439H1601.32V431.436H1600.89C1600.02 433.141 1598.85 434.644 1597.38 435.946C1595.91 437.224 1594.15 438.231 1592.09 438.964C1590.03 439.675 1587.65 440.03 1584.95 440.03ZM1589.28 429.589C1591.51 429.589 1593.47 429.152 1595.18 428.276C1596.88 427.376 1598.22 426.169 1599.19 424.653C1600.16 423.138 1600.65 421.422 1600.65 419.504V413.716C1600.17 414.024 1599.52 414.308 1598.69 414.568C1597.89 414.805 1596.98 415.03 1595.96 415.243C1594.94 415.432 1593.92 415.61 1592.9 415.776C1591.89 415.918 1590.96 416.048 1590.13 416.166C1588.36 416.427 1586.81 416.841 1585.48 417.409C1584.16 417.977 1583.13 418.747 1582.39 419.717C1581.66 420.664 1581.29 421.848 1581.29 423.268C1581.29 425.328 1582.04 426.902 1583.53 427.991C1585.04 429.057 1586.96 429.589 1589.28 429.589ZM1642.53 366.273V439H1627.4V366.273H1642.53ZM1669.78 366.273V439H1654.65V366.273H1669.78ZM1706.75 440.065C1701.14 440.065 1696.31 438.929 1692.27 436.656C1688.24 434.36 1685.14 431.116 1682.96 426.926C1680.78 422.712 1679.69 417.729 1679.69 411.976C1679.69 406.365 1680.78 401.441 1682.96 397.203C1685.14 392.965 1688.21 389.663 1692.16 387.295C1696.14 384.928 1700.8 383.744 1706.15 383.744C1709.75 383.744 1713.1 384.324 1716.2 385.484C1719.33 386.621 1722.05 388.337 1724.37 390.634C1726.71 392.93 1728.53 395.818 1729.84 399.298C1731.14 402.755 1731.79 406.803 1731.79 411.443V415.598H1685.73V406.223H1717.55C1717.55 404.045 1717.08 402.116 1716.13 400.435C1715.18 398.754 1713.87 397.44 1712.19 396.493C1710.53 395.522 1708.6 395.037 1706.4 395.037C1704.1 395.037 1702.07 395.57 1700.29 396.635C1698.54 397.677 1697.17 399.085 1696.17 400.861C1695.18 402.613 1694.67 404.566 1694.64 406.72V415.634C1694.64 418.332 1695.14 420.664 1696.14 422.629C1697.15 424.594 1698.59 426.109 1700.43 427.175C1702.28 428.24 1704.47 428.773 1707 428.773C1708.68 428.773 1710.22 428.536 1711.62 428.062C1713.02 427.589 1714.21 426.879 1715.21 425.932C1716.2 424.985 1716.96 423.825 1717.48 422.452L1731.47 423.375C1730.76 426.737 1729.3 429.672 1727.1 432.182C1724.92 434.668 1722.11 436.609 1718.65 438.006C1715.22 439.379 1711.25 440.065 1706.75 440.065ZM1770.67 384.455V395.818H1737.83V384.455H1770.67ZM1745.28 371.386H1760.41V422.239C1760.41 423.635 1760.63 424.724 1761.05 425.506C1761.48 426.263 1762.07 426.796 1762.83 427.104C1763.61 427.411 1764.51 427.565 1765.53 427.565C1766.24 427.565 1766.95 427.506 1767.66 427.388C1768.37 427.246 1768.91 427.139 1769.29 427.068L1771.67 438.325C1770.91 438.562 1769.85 438.834 1768.47 439.142C1767.1 439.473 1765.43 439.675 1763.47 439.746C1759.82 439.888 1756.62 439.402 1753.88 438.29C1751.16 437.177 1749.04 435.449 1747.52 433.105C1746.01 430.761 1745.26 427.802 1745.28 424.227V371.386Z" fill="white"/>
<path d="M1131.15 543L1121.19 506.636H1124.56L1132.8 537.904H1133.09L1141.32 506.636H1145.16L1153.4 537.904H1153.68L1161.92 506.636H1165.31L1155.35 543H1151.8L1143.37 512.158H1143.14L1134.7 543H1131.15ZM1179.14 543.568C1176.6 543.568 1174.4 542.976 1172.54 541.793C1170.68 540.597 1169.24 538.946 1168.22 536.839C1167.22 534.72 1166.72 532.281 1166.72 529.523C1166.72 526.777 1167.22 524.339 1168.22 522.208C1169.24 520.066 1170.65 518.391 1172.43 517.183C1174.23 515.964 1176.31 515.354 1178.66 515.354C1180.14 515.354 1181.57 515.627 1182.94 516.171C1184.32 516.704 1185.55 517.527 1186.64 518.639C1187.74 519.74 1188.61 521.131 1189.25 522.812C1189.89 524.481 1190.21 526.458 1190.21 528.742V530.305H1168.9V527.517H1186.97C1186.97 525.765 1186.62 524.191 1185.91 522.794C1185.21 521.385 1184.23 520.273 1182.98 519.456C1181.74 518.639 1180.3 518.231 1178.66 518.231C1176.94 518.231 1175.42 518.692 1174.1 519.616C1172.79 520.539 1171.76 521.758 1171.01 523.273C1170.28 524.789 1169.91 526.446 1169.89 528.245V529.914C1169.89 532.08 1170.27 533.974 1171.01 535.596C1171.77 537.206 1172.84 538.455 1174.23 539.342C1175.61 540.23 1177.25 540.674 1179.14 540.674C1180.43 540.674 1181.56 540.473 1182.54 540.07C1183.52 539.668 1184.34 539.129 1185 538.455C1185.68 537.768 1186.19 537.016 1186.53 536.2L1189.53 537.176C1189.12 538.324 1188.44 539.384 1187.49 540.354C1186.55 541.325 1185.38 542.106 1183.97 542.698C1182.58 543.278 1180.97 543.568 1179.14 543.568ZM1197.83 543V506.636H1201.01V520.93H1201.29C1201.65 520.113 1202.15 519.272 1202.82 518.408C1203.49 517.544 1204.37 516.822 1205.46 516.242C1206.56 515.65 1207.95 515.354 1209.62 515.354C1211.85 515.354 1213.82 515.946 1215.51 517.13C1217.2 518.302 1218.52 519.947 1219.47 522.066C1220.42 524.173 1220.89 526.629 1220.89 529.435C1220.89 532.252 1220.42 534.72 1219.47 536.839C1218.54 538.958 1217.22 540.609 1215.53 541.793C1213.85 542.976 1211.9 543.568 1209.67 543.568C1208.01 543.568 1206.63 543.272 1205.52 542.68C1204.41 542.089 1203.53 541.361 1202.85 540.496C1202.18 539.621 1201.66 538.768 1201.29 537.94H1200.9V543H1197.83ZM1200.95 529.381C1200.95 531.583 1201.28 533.536 1201.93 535.241C1202.59 536.933 1203.54 538.265 1204.77 539.236C1206.01 540.195 1207.52 540.674 1209.28 540.674C1211.09 540.674 1212.62 540.177 1213.88 539.183C1215.13 538.176 1216.09 536.821 1216.74 535.116C1217.39 533.412 1217.71 531.5 1217.71 529.381C1217.71 527.286 1217.39 525.398 1216.74 523.717C1216.1 522.036 1215.15 520.705 1213.9 519.722C1212.64 518.728 1211.1 518.231 1209.28 518.231C1207.5 518.231 1206 518.71 1204.75 519.669C1203.52 520.616 1202.58 521.93 1201.93 523.611C1201.28 525.28 1200.95 527.203 1200.95 529.381ZM1239.52 543.497C1237.28 543.497 1235.28 543.095 1233.52 542.29C1231.75 541.473 1230.36 540.343 1229.33 538.898C1228.3 537.454 1227.75 535.791 1227.69 533.909H1231.05C1231.11 535.235 1231.52 536.395 1232.27 537.389C1233.03 538.372 1234.04 539.141 1235.29 539.697C1236.55 540.242 1237.94 540.514 1239.48 540.514C1241.16 540.514 1242.64 540.201 1243.92 539.573C1245.21 538.946 1246.22 538.088 1246.94 536.999C1247.67 535.898 1248.04 534.655 1248.04 533.27C1248.04 531.802 1247.67 530.506 1246.92 529.381C1246.18 528.257 1245.11 527.381 1243.71 526.754C1242.32 526.126 1240.67 525.812 1238.74 525.812H1236.61V522.83H1238.74C1240.31 522.83 1241.7 522.545 1242.91 521.977C1244.13 521.397 1245.09 520.586 1245.79 519.545C1246.48 518.503 1246.83 517.278 1246.83 515.869C1246.83 514.532 1246.53 513.354 1245.93 512.336C1245.32 511.318 1244.47 510.519 1243.37 509.939C1242.28 509.359 1241.01 509.069 1239.55 509.069C1238.14 509.069 1236.85 509.341 1235.68 509.886C1234.51 510.43 1233.56 511.2 1232.84 512.194C1232.13 513.188 1231.75 514.366 1231.71 515.727H1228.49C1228.54 513.833 1229.06 512.17 1230.05 510.738C1231.06 509.294 1232.39 508.169 1234.05 507.364C1235.72 506.548 1237.56 506.139 1239.59 506.139C1241.73 506.139 1243.58 506.577 1245.15 507.453C1246.71 508.329 1247.92 509.495 1248.77 510.951C1249.63 512.395 1250.06 513.987 1250.06 515.727C1250.06 517.799 1249.5 519.574 1248.38 521.054C1247.25 522.522 1245.74 523.54 1243.83 524.108V524.339C1246.15 524.8 1247.98 525.83 1249.3 527.428C1250.64 529.014 1251.31 530.962 1251.31 533.27C1251.31 535.211 1250.8 536.957 1249.78 538.508C1248.76 540.047 1247.37 541.266 1245.59 542.165C1243.83 543.053 1241.8 543.497 1239.52 543.497ZM1274 523.327V526.31H1258.87V523.327H1274ZM1281.94 543V515.727H1285.1V527.996H1288.06L1298.2 515.727H1302.28L1291.35 528.849L1302.53 543H1298.45L1289.04 530.979H1285.1V543H1281.94ZM1317.19 543.568C1314.84 543.568 1312.76 542.97 1310.94 541.775C1309.15 540.579 1307.74 538.928 1306.72 536.821C1305.7 534.702 1305.19 532.258 1305.19 529.488C1305.19 526.694 1305.7 524.238 1306.72 522.119C1307.74 519.989 1309.15 518.331 1310.94 517.148C1312.76 515.952 1314.84 515.354 1317.19 515.354C1319.55 515.354 1321.63 515.952 1323.43 517.148C1325.23 518.343 1326.63 520 1327.65 522.119C1328.68 524.238 1329.2 526.694 1329.2 529.488C1329.2 532.258 1328.69 534.702 1327.67 536.821C1326.65 538.928 1325.24 540.579 1323.43 541.775C1321.63 542.97 1319.55 543.568 1317.19 543.568ZM1317.19 540.674C1319.09 540.674 1320.69 540.165 1322.01 539.147C1323.32 538.129 1324.31 536.774 1324.99 535.081C1325.68 533.388 1326.02 531.524 1326.02 529.488C1326.02 527.452 1325.68 525.582 1324.99 523.877C1324.31 522.173 1323.32 520.805 1322.01 519.776C1320.69 518.746 1319.09 518.231 1317.19 518.231C1315.31 518.231 1313.71 518.746 1312.38 519.776C1311.07 520.805 1310.07 522.173 1309.38 523.877C1308.71 525.582 1308.37 527.452 1308.37 529.488C1308.37 531.524 1308.71 533.388 1309.38 535.081C1310.07 536.774 1311.07 538.129 1312.38 539.147C1313.7 540.165 1315.3 540.674 1317.19 540.674ZM1336.14 515.727H1339.3V540.017H1350.48V515.727H1353.64V540.017H1364.83V515.727H1367.99V543H1336.14V515.727ZM1387.4 543.568C1384.85 543.568 1382.65 542.976 1380.79 541.793C1378.93 540.597 1377.49 538.946 1376.48 536.839C1375.47 534.72 1374.97 532.281 1374.97 529.523C1374.97 526.777 1375.47 524.339 1376.48 522.208C1377.49 520.066 1378.9 518.391 1380.68 517.183C1382.48 515.964 1384.56 515.354 1386.92 515.354C1388.4 515.354 1389.82 515.627 1391.2 516.171C1392.57 516.704 1393.8 517.527 1394.89 518.639C1395.99 519.74 1396.86 521.131 1397.5 522.812C1398.14 524.481 1398.46 526.458 1398.46 528.742V530.305H1377.15V527.517H1395.23C1395.23 525.765 1394.87 524.191 1394.16 522.794C1393.46 521.385 1392.49 520.273 1391.23 519.456C1389.99 518.639 1388.55 518.231 1386.92 518.231C1385.19 518.231 1383.67 518.692 1382.35 519.616C1381.04 520.539 1380.01 521.758 1379.26 523.273C1378.53 524.789 1378.16 526.446 1378.15 528.245V529.914C1378.15 532.08 1378.52 533.974 1379.26 535.596C1380.02 537.206 1381.09 538.455 1382.48 539.342C1383.86 540.23 1385.5 540.674 1387.4 540.674C1388.69 540.674 1389.82 540.473 1390.79 540.07C1391.77 539.668 1392.59 539.129 1393.26 538.455C1393.93 537.768 1394.44 537.016 1394.78 536.2L1397.78 537.176C1397.37 538.324 1396.69 539.384 1395.74 540.354C1394.81 541.325 1393.63 542.106 1392.23 542.698C1390.83 543.278 1389.22 543.568 1387.4 543.568ZM1402.74 543V540.017H1403.59C1404.56 540.017 1405.35 539.839 1405.94 539.484C1406.54 539.117 1407.01 538.502 1407.34 537.638C1407.67 536.774 1407.92 535.596 1408.09 534.104C1408.25 532.613 1408.38 530.743 1408.48 528.494L1409.06 515.727H1426.39V543H1423.21V518.71H1412.06L1411.55 529.559C1411.44 531.772 1411.26 533.72 1411.02 535.401C1410.78 537.081 1410.39 538.484 1409.84 539.609C1409.31 540.733 1408.57 541.58 1407.61 542.148C1406.66 542.716 1405.42 543 1403.88 543H1402.74ZM1445.79 543.568C1443.25 543.568 1441.05 542.976 1439.19 541.793C1437.33 540.597 1435.89 538.946 1434.87 536.839C1433.87 534.72 1433.37 532.281 1433.37 529.523C1433.37 526.777 1433.87 524.339 1434.87 522.208C1435.89 520.066 1437.3 518.391 1439.08 517.183C1440.88 515.964 1442.96 515.354 1445.32 515.354C1446.79 515.354 1448.22 515.627 1449.59 516.171C1450.97 516.704 1452.2 517.527 1453.29 518.639C1454.39 519.74 1455.26 521.131 1455.9 522.812C1456.54 524.481 1456.86 526.458 1456.86 528.742V530.305H1435.55V527.517H1453.62C1453.62 525.765 1453.27 524.191 1452.56 522.794C1451.86 521.385 1450.88 520.273 1449.63 519.456C1448.39 518.639 1446.95 518.231 1445.32 518.231C1443.59 518.231 1442.07 518.692 1440.75 519.616C1439.44 520.539 1438.41 521.758 1437.66 523.273C1436.93 524.789 1436.56 526.446 1436.54 528.245V529.914C1436.54 532.08 1436.92 533.974 1437.66 535.596C1438.42 537.206 1439.49 538.455 1440.88 539.342C1442.26 540.23 1443.9 540.674 1445.79 540.674C1447.08 540.674 1448.22 540.473 1449.19 540.07C1450.17 539.668 1450.99 539.129 1451.65 538.455C1452.33 537.768 1452.84 537.016 1453.18 536.2L1456.18 537.176C1455.77 538.324 1455.09 539.384 1454.14 540.354C1453.2 541.325 1452.03 542.106 1450.62 542.698C1449.23 543.278 1447.62 543.568 1445.79 543.568ZM1463.82 543V515.727H1466.98V527.996H1469.95L1480.09 515.727H1484.17L1473.23 528.849L1484.42 543H1480.33L1470.92 530.979H1466.98V543H1463.82ZM1134.83 604.568C1132.39 604.568 1130.26 603.959 1128.45 602.739C1126.65 601.52 1125.26 599.851 1124.26 597.732C1123.27 595.613 1122.77 593.199 1122.77 590.488C1122.77 587.754 1123.27 585.321 1124.28 583.19C1125.3 581.06 1126.71 579.391 1128.5 578.183C1130.3 576.964 1132.39 576.354 1134.77 576.354C1136.6 576.354 1138.25 576.71 1139.73 577.42C1141.21 578.118 1142.43 579.107 1143.38 580.385C1144.35 581.652 1144.96 583.131 1145.21 584.824H1142.02C1141.69 583.285 1140.89 581.971 1139.62 580.882C1138.37 579.781 1136.77 579.231 1134.83 579.231C1133.09 579.231 1131.55 579.704 1130.21 580.651C1128.87 581.586 1127.82 582.894 1127.07 584.575C1126.32 586.244 1125.95 588.18 1125.95 590.381C1125.95 592.595 1126.32 594.554 1127.05 596.259C1127.78 597.951 1128.81 599.277 1130.14 600.236C1131.48 601.195 1133.04 601.674 1134.83 601.674C1136.03 601.674 1137.13 601.449 1138.13 600.999C1139.13 600.538 1139.98 599.887 1140.65 599.046C1141.34 598.206 1141.8 597.205 1142.03 596.045H1145.23C1144.99 597.691 1144.41 599.159 1143.47 600.449C1142.55 601.727 1141.35 602.733 1139.87 603.467C1138.4 604.201 1136.72 604.568 1134.83 604.568ZM1169.23 599.508L1183.63 576.727H1187.41V604H1184.25V581.219L1169.9 604H1166.07V576.727H1169.23V599.508ZM1206.41 604.568C1203.97 604.568 1201.84 603.959 1200.03 602.739C1198.23 601.52 1196.84 599.851 1195.84 597.732C1194.85 595.613 1194.35 593.199 1194.35 590.488C1194.35 587.754 1194.85 585.321 1195.86 583.19C1196.88 581.06 1198.29 579.391 1200.09 578.183C1201.89 576.964 1203.98 576.354 1206.35 576.354C1208.18 576.354 1209.83 576.71 1211.31 577.42C1212.79 578.118 1214.01 579.107 1214.97 580.385C1215.94 581.652 1216.55 583.131 1216.8 584.824H1213.6C1213.27 583.285 1212.47 581.971 1211.2 580.882C1209.95 579.781 1208.35 579.231 1206.41 579.231C1204.67 579.231 1203.13 579.704 1201.79 580.651C1200.45 581.586 1199.41 582.894 1198.65 584.575C1197.9 586.244 1197.53 588.18 1197.53 590.381C1197.53 592.595 1197.9 594.554 1198.63 596.259C1199.36 597.951 1200.39 599.277 1201.72 600.236C1203.06 601.195 1204.62 601.674 1206.41 601.674C1207.62 601.674 1208.72 601.449 1209.71 600.999C1210.72 600.538 1211.56 599.887 1212.23 599.046C1212.92 598.206 1213.38 597.205 1213.62 596.045H1216.81C1216.58 597.691 1215.99 599.159 1215.06 600.449C1214.13 601.727 1212.93 602.733 1211.45 603.467C1209.98 604.201 1208.3 604.568 1206.41 604.568ZM1223.59 604V576.727H1226.75V588.996H1229.71L1239.85 576.727H1243.93L1233 589.849L1244.18 604H1240.1L1230.69 591.979H1226.75V604H1223.59ZM1251.57 614.227C1250.94 614.227 1250.36 614.168 1249.81 614.05C1249.27 613.931 1248.84 613.801 1248.52 613.659L1249.37 610.871C1250.45 611.203 1251.4 611.321 1252.24 611.227C1253.08 611.144 1253.83 610.765 1254.48 610.09C1255.13 609.427 1255.71 608.409 1256.22 607.036L1257.22 604.266L1247.18 576.727H1250.61L1258.71 599.827H1258.96L1267.05 576.727H1270.48L1258.94 608.315C1258.45 609.629 1257.86 610.723 1257.14 611.599C1256.43 612.487 1255.61 613.144 1254.68 613.57C1253.75 614.008 1252.72 614.227 1251.57 614.227ZM1286.34 604.568C1283.9 604.568 1281.78 603.959 1279.97 602.739C1278.17 601.52 1276.77 599.851 1275.78 597.732C1274.78 595.613 1274.28 593.199 1274.28 590.488C1274.28 587.754 1274.79 585.321 1275.79 583.19C1276.81 581.06 1278.22 579.391 1280.02 578.183C1281.82 576.964 1283.91 576.354 1286.29 576.354C1288.11 576.354 1289.76 576.71 1291.24 577.42C1292.72 578.118 1293.94 579.107 1294.9 580.385C1295.87 581.652 1296.48 583.131 1296.73 584.824H1293.53C1293.2 583.285 1292.4 581.971 1291.13 580.882C1289.88 579.781 1288.28 579.231 1286.34 579.231C1284.6 579.231 1283.06 579.704 1281.72 580.651C1280.39 581.586 1279.34 582.894 1278.58 584.575C1277.83 586.244 1277.46 588.18 1277.46 590.381C1277.46 592.595 1277.83 594.554 1278.56 596.259C1279.3 597.951 1280.33 599.277 1281.65 600.236C1282.99 601.195 1284.55 601.674 1286.34 601.674C1287.55 601.674 1288.65 601.449 1289.64 600.999C1290.65 600.538 1291.49 599.887 1292.16 599.046C1292.85 598.206 1293.31 597.205 1293.55 596.045H1296.74C1296.51 597.691 1295.92 599.159 1294.99 600.449C1294.06 601.727 1292.86 602.733 1291.38 603.467C1289.91 604.201 1288.23 604.568 1286.34 604.568ZM1314.17 604.568C1311.73 604.568 1309.61 603.959 1307.8 602.739C1306 601.52 1304.6 599.851 1303.61 597.732C1302.61 595.613 1302.12 593.199 1302.12 590.488C1302.12 587.754 1302.62 585.321 1303.62 583.19C1304.64 581.06 1306.05 579.391 1307.85 578.183C1309.65 576.964 1311.74 576.354 1314.12 576.354C1315.94 576.354 1317.59 576.71 1319.07 577.42C1320.55 578.118 1321.77 579.107 1322.73 580.385C1323.7 581.652 1324.31 583.131 1324.56 584.824H1321.36C1321.03 583.285 1320.23 581.971 1318.97 580.882C1317.71 579.781 1316.11 579.231 1314.17 579.231C1312.43 579.231 1310.89 579.704 1309.56 580.651C1308.22 581.586 1307.17 582.894 1306.41 584.575C1305.67 586.244 1305.29 588.18 1305.29 590.381C1305.29 592.595 1305.66 594.554 1306.39 596.259C1307.13 597.951 1308.16 599.277 1309.48 600.236C1310.82 601.195 1312.38 601.674 1314.17 601.674C1315.38 601.674 1316.48 601.449 1317.47 600.999C1318.48 600.538 1319.32 599.887 1320 599.046C1320.68 598.206 1321.14 597.205 1321.38 596.045H1324.58C1324.34 597.691 1323.75 599.159 1322.82 600.449C1321.9 601.727 1320.69 602.733 1319.21 603.467C1317.75 604.201 1316.07 604.568 1314.17 604.568ZM1329.1 579.71V576.727H1350.4V579.71H1341.38V604H1338.22V579.71H1329.1ZM1357.08 604V576.727H1367.82C1370.73 576.727 1373.01 577.355 1374.68 578.609C1376.36 579.864 1377.2 581.557 1377.2 583.688C1377.2 585.309 1376.73 586.605 1375.8 587.576C1374.86 588.547 1373.61 589.233 1372.03 589.636C1373.09 589.813 1374.06 590.198 1374.96 590.79C1375.87 591.382 1376.61 592.163 1377.18 593.134C1377.75 594.104 1378.03 595.264 1378.03 596.614C1378.03 598.034 1377.68 599.301 1376.97 600.413C1376.26 601.526 1375.26 602.402 1373.97 603.041C1372.68 603.68 1371.15 604 1369.39 604H1357.08ZM1360.1 601.07H1369.39C1371.06 601.07 1372.38 600.644 1373.35 599.792C1374.32 598.928 1374.8 597.78 1374.8 596.347C1374.8 594.82 1374.34 593.601 1373.42 592.69C1372.51 591.766 1371.28 591.305 1369.74 591.305H1360.1V601.07ZM1360.1 588.499H1368.02C1369.25 588.499 1370.32 588.31 1371.22 587.931C1372.12 587.552 1372.81 587.02 1373.29 586.333C1373.79 585.635 1374.03 584.818 1374.02 583.883C1374.02 582.545 1373.48 581.509 1372.39 580.776C1371.3 580.03 1369.78 579.657 1367.82 579.657H1360.1V588.499ZM1395.99 604.568C1393.44 604.568 1391.24 603.976 1389.38 602.793C1387.53 601.597 1386.09 599.946 1385.07 597.839C1384.06 595.72 1383.56 593.281 1383.56 590.523C1383.56 587.777 1384.06 585.339 1385.07 583.208C1386.09 581.066 1387.49 579.391 1389.28 578.183C1391.08 576.964 1393.15 576.354 1395.51 576.354C1396.99 576.354 1398.42 576.627 1399.79 577.171C1401.16 577.704 1402.39 578.527 1403.48 579.639C1404.58 580.74 1405.45 582.131 1406.09 583.812C1406.73 585.481 1407.05 587.458 1407.05 589.742V591.305H1385.74V588.517H1403.82C1403.82 586.765 1403.47 585.191 1402.75 583.794C1402.06 582.385 1401.08 581.273 1399.83 580.456C1398.58 579.639 1397.14 579.231 1395.51 579.231C1393.78 579.231 1392.26 579.692 1390.95 580.616C1389.63 581.539 1388.6 582.758 1387.86 584.273C1387.12 585.789 1386.75 587.446 1386.74 589.245V590.914C1386.74 593.08 1387.11 594.974 1387.86 596.596C1388.62 598.206 1389.69 599.455 1391.07 600.342C1392.46 601.23 1394.1 601.674 1395.99 601.674C1397.28 601.674 1398.41 601.473 1399.38 601.07C1400.36 600.668 1401.19 600.129 1401.85 599.455C1402.52 598.768 1403.03 598.016 1403.38 597.2L1406.38 598.176C1405.96 599.324 1405.28 600.384 1404.34 601.354C1403.4 602.325 1402.23 603.106 1400.82 603.698C1399.42 604.278 1397.81 604.568 1395.99 604.568ZM1432.43 588.89V591.873H1416.4V588.89H1432.43ZM1417.18 576.727V604H1414.02V576.727H1417.18ZM1434.75 576.727V604H1431.59V576.727H1434.75ZM1461.58 588.89V591.873H1445.55V588.89H1461.58ZM1446.33 576.727V604H1443.17V576.727H1446.33ZM1463.91 576.727V604H1460.74V576.727H1463.91ZM1474.98 587.256H1482.97C1486.04 587.256 1488.4 588.002 1490.07 589.494C1491.74 590.985 1492.58 593.003 1492.58 595.548C1492.58 597.241 1492.2 598.721 1491.44 599.987C1490.69 601.254 1489.61 602.242 1488.17 602.952C1486.74 603.651 1485.01 604 1482.97 604H1472.35V576.727H1475.53V601.017H1482.97C1484.9 601.017 1486.45 600.555 1487.62 599.632C1488.81 598.709 1489.4 597.395 1489.4 595.69C1489.4 593.95 1488.81 592.607 1487.62 591.66C1486.45 590.713 1484.9 590.239 1482.97 590.239H1474.98V587.256ZM1497.18 604V576.727H1500.34V604H1497.18ZM1523 599.579L1533.25 576.727H1536.32L1524.26 604H1521.74L1509.83 576.727H1512.84L1523 599.579ZM1511.9 576.727V604H1508.74V576.727H1511.9ZM1534.1 604V576.727H1537.26V604H1534.1ZM1127.33 660.508L1141.73 637.727H1145.51V665H1142.35V642.219L1128.01 665H1124.17V637.727H1127.33V660.508ZM1172.27 649.89V652.873H1156.24V649.89H1172.27ZM1157.02 637.727V665H1153.86V637.727H1157.02ZM1174.6 637.727V665H1171.44V637.727H1174.6ZM1179.19 640.71V637.727H1200.5V640.71H1191.48V665H1188.32V640.71H1179.19ZM1216.79 665.568C1214.25 665.568 1212.04 664.976 1210.19 663.793C1208.33 662.597 1206.89 660.946 1205.87 658.839C1204.86 656.72 1204.36 654.281 1204.36 651.523C1204.36 648.777 1204.86 646.339 1205.87 644.208C1206.89 642.066 1208.29 640.391 1210.08 639.183C1211.88 637.964 1213.96 637.354 1216.31 637.354C1217.79 637.354 1219.22 637.627 1220.59 638.171C1221.96 638.704 1223.19 639.527 1224.28 640.639C1225.38 641.74 1226.25 643.131 1226.89 644.812C1227.53 646.481 1227.85 648.458 1227.85 650.742V652.305H1206.55V649.517H1224.62C1224.62 647.765 1224.27 646.191 1223.56 644.794C1222.86 643.385 1221.88 642.273 1220.63 641.456C1219.38 640.639 1217.94 640.231 1216.31 640.231C1214.58 640.231 1213.06 640.692 1211.75 641.616C1210.43 642.539 1209.4 643.758 1208.66 645.273C1207.92 646.789 1207.55 648.446 1207.54 650.245V651.914C1207.54 654.08 1207.91 655.974 1208.66 657.596C1209.42 659.206 1210.49 660.455 1211.87 661.342C1213.26 662.23 1214.9 662.674 1216.79 662.674C1218.08 662.674 1219.21 662.473 1220.18 662.07C1221.16 661.668 1221.99 661.129 1222.65 660.455C1223.32 659.768 1223.83 659.016 1224.18 658.2L1227.18 659.176C1226.76 660.324 1226.08 661.384 1225.14 662.354C1224.2 663.325 1223.03 664.106 1221.62 664.698C1220.22 665.278 1218.61 665.568 1216.79 665.568ZM1232.14 665V662.017H1232.99C1233.96 662.017 1234.74 661.839 1235.33 661.484C1235.94 661.117 1236.4 660.502 1236.73 659.638C1237.07 658.774 1237.31 657.596 1237.48 656.104C1237.65 654.613 1237.78 652.743 1237.87 650.494L1238.46 637.727H1255.79V665H1252.61V640.71H1241.46L1240.94 651.559C1240.84 653.772 1240.66 655.72 1240.41 657.401C1240.17 659.081 1239.78 660.484 1239.24 661.609C1238.71 662.733 1237.96 663.58 1237 664.148C1236.05 664.716 1234.81 665 1233.27 665H1232.14ZM1261.48 665V662.017H1262.33C1263.3 662.017 1264.09 661.839 1264.68 661.484C1265.28 661.117 1265.75 660.502 1266.08 659.638C1266.41 658.774 1266.66 657.596 1266.83 656.104C1266.99 654.613 1267.12 652.743 1267.22 650.494L1267.8 637.727H1285.13V665H1281.95V640.71H1270.8L1270.29 651.559C1270.18 653.772 1270 655.72 1269.76 657.401C1269.52 659.081 1269.13 660.484 1268.58 661.609C1268.05 662.733 1267.31 663.58 1266.35 664.148C1265.4 664.716 1264.16 665 1262.62 665H1261.48ZM1304.53 665.568C1301.99 665.568 1299.79 664.976 1297.93 663.793C1296.07 662.597 1294.63 660.946 1293.62 658.839C1292.61 656.72 1292.11 654.281 1292.11 651.523C1292.11 648.777 1292.61 646.339 1293.62 644.208C1294.63 642.066 1296.04 640.391 1297.82 639.183C1299.62 637.964 1301.7 637.354 1304.06 637.354C1305.54 637.354 1306.96 637.627 1308.33 638.171C1309.71 638.704 1310.94 639.527 1312.03 640.639C1313.13 641.74 1314 643.131 1314.64 644.812C1315.28 646.481 1315.6 648.458 1315.6 650.742V652.305H1294.29V649.517H1312.37C1312.37 647.765 1312.01 646.191 1311.3 644.794C1310.6 643.385 1309.62 642.273 1308.37 641.456C1307.13 640.639 1305.69 640.231 1304.06 640.231C1302.33 640.231 1300.81 640.692 1299.49 641.616C1298.18 642.539 1297.15 643.758 1296.4 645.273C1295.67 646.789 1295.3 648.446 1295.28 650.245V651.914C1295.28 654.08 1295.66 655.974 1296.4 657.596C1297.16 659.206 1298.23 660.455 1299.62 661.342C1301 662.23 1302.64 662.674 1304.53 662.674C1305.83 662.674 1306.96 662.473 1307.93 662.07C1308.91 661.668 1309.73 661.129 1310.39 660.455C1311.07 659.768 1311.58 659.016 1311.92 658.2L1314.92 659.176C1314.51 660.324 1313.83 661.384 1312.88 662.354C1311.94 663.325 1310.77 664.106 1309.36 664.698C1307.97 665.278 1306.36 665.568 1304.53 665.568ZM1322.56 665V637.727H1325.72V649.996H1328.69L1338.83 637.727H1342.91L1331.97 650.849L1343.16 665H1339.07L1329.66 652.979H1325.72V665H1322.56ZM1346.67 640.71V637.727H1367.98V640.71H1358.96V665H1355.8V640.71H1346.67ZM1383.84 665.568C1381.49 665.568 1379.41 664.97 1377.59 663.775C1375.8 662.579 1374.39 660.928 1373.37 658.821C1372.35 656.702 1371.84 654.258 1371.84 651.488C1371.84 648.694 1372.35 646.238 1373.37 644.119C1374.39 641.989 1375.8 640.331 1377.59 639.148C1379.41 637.952 1381.49 637.354 1383.84 637.354C1386.2 637.354 1388.28 637.952 1390.08 639.148C1391.88 640.343 1393.29 642 1394.3 644.119C1395.33 646.238 1395.85 648.694 1395.85 651.488C1395.85 654.258 1395.34 656.702 1394.32 658.821C1393.3 660.928 1391.89 662.579 1390.08 663.775C1388.28 664.97 1386.2 665.568 1383.84 665.568ZM1383.84 662.674C1385.74 662.674 1387.34 662.165 1388.66 661.147C1389.97 660.129 1390.97 658.774 1391.64 657.081C1392.33 655.388 1392.67 653.524 1392.67 651.488C1392.67 649.452 1392.33 647.582 1391.64 645.877C1390.97 644.173 1389.97 642.805 1388.66 641.776C1387.34 640.746 1385.74 640.231 1383.84 640.231C1381.96 640.231 1380.36 640.746 1379.03 641.776C1377.72 642.805 1376.72 644.173 1376.03 645.877C1375.36 647.582 1375.02 649.452 1375.02 651.488C1375.02 653.524 1375.36 655.388 1376.03 657.081C1376.72 658.774 1377.72 660.129 1379.03 661.147C1380.35 662.165 1381.95 662.674 1383.84 662.674ZM1417.04 660.579L1427.29 637.727H1430.36L1418.3 665H1415.78L1403.87 637.727H1406.89L1417.04 660.579ZM1405.95 637.727V665H1402.79V637.727H1405.95ZM1428.14 665V637.727H1431.3V665H1428.14ZM1124.17 726V698.727H1134.91C1137.81 698.727 1140.1 699.355 1141.77 700.609C1143.45 701.864 1144.29 703.557 1144.29 705.688C1144.29 707.309 1143.82 708.605 1142.89 709.576C1141.95 710.547 1140.7 711.233 1139.12 711.636C1140.18 711.813 1141.15 712.198 1142.05 712.79C1142.96 713.382 1143.7 714.163 1144.27 715.134C1144.84 716.104 1145.12 717.264 1145.12 718.614C1145.12 720.034 1144.77 721.301 1144.06 722.413C1143.35 723.526 1142.35 724.402 1141.06 725.041C1139.77 725.68 1138.24 726 1136.48 726H1124.17ZM1127.19 723.07H1136.48C1138.15 723.07 1139.47 722.644 1140.44 721.792C1141.41 720.928 1141.89 719.78 1141.89 718.347C1141.89 716.82 1141.43 715.601 1140.51 714.69C1139.6 713.766 1138.37 713.305 1136.83 713.305H1127.19V723.07ZM1127.19 710.499H1135.11C1136.34 710.499 1137.41 710.31 1138.31 709.931C1139.21 709.552 1139.9 709.02 1140.38 708.333C1140.88 707.635 1141.12 706.818 1141.11 705.883C1141.11 704.545 1140.57 703.509 1139.48 702.776C1138.39 702.03 1136.87 701.657 1134.91 701.657H1127.19V710.499ZM1164.57 692.619V689.636H1190.94V692.619H1179.41V726H1176.09V692.619H1164.57ZM1204.83 726.568C1202.28 726.568 1200.08 725.976 1198.22 724.793C1196.36 723.597 1194.93 721.946 1193.91 719.839C1192.9 717.72 1192.4 715.281 1192.4 712.523C1192.4 709.777 1192.9 707.339 1193.91 705.208C1194.93 703.066 1196.33 701.391 1198.12 700.183C1199.92 698.964 1201.99 698.354 1204.35 698.354C1205.83 698.354 1207.25 698.627 1208.63 699.171C1210 699.704 1211.23 700.527 1212.32 701.639C1213.42 702.74 1214.29 704.131 1214.93 705.812C1215.57 707.481 1215.89 709.458 1215.89 711.742V713.305H1194.58V710.517H1212.66C1212.66 708.765 1212.3 707.191 1211.59 705.794C1210.89 704.385 1209.92 703.273 1208.66 702.456C1207.42 701.639 1205.98 701.231 1204.35 701.231C1202.62 701.231 1201.1 701.692 1199.79 702.616C1198.47 703.539 1197.44 704.758 1196.7 706.273C1195.96 707.789 1195.59 709.446 1195.58 711.245V712.914C1195.58 715.08 1195.95 716.974 1196.7 718.596C1197.45 720.206 1198.52 721.455 1199.91 722.342C1201.29 723.23 1202.93 723.674 1204.83 723.674C1206.12 723.674 1207.25 723.473 1208.22 723.07C1209.2 722.668 1210.02 722.129 1210.69 721.455C1211.36 720.768 1211.87 720.016 1212.21 719.2L1215.21 720.176C1214.8 721.324 1214.12 722.384 1213.17 723.354C1212.24 724.325 1211.07 725.106 1209.66 725.698C1208.26 726.278 1206.65 726.568 1204.83 726.568ZM1226.01 689.636V726H1222.85V689.636H1226.01ZM1245.4 726.568C1242.86 726.568 1240.66 725.976 1238.8 724.793C1236.94 723.597 1235.5 721.946 1234.48 719.839C1233.48 717.72 1232.97 715.281 1232.97 712.523C1232.97 709.777 1233.48 707.339 1234.48 705.208C1235.5 703.066 1236.9 701.391 1238.69 700.183C1240.49 698.964 1242.57 698.354 1244.92 698.354C1246.4 698.354 1247.83 698.627 1249.2 699.171C1250.58 699.704 1251.81 700.527 1252.9 701.639C1254 702.74 1254.87 704.131 1255.51 705.812C1256.15 707.481 1256.47 709.458 1256.47 711.742V713.305H1235.16V710.517H1253.23C1253.23 708.765 1252.88 707.191 1252.17 705.794C1251.47 704.385 1250.49 703.273 1249.24 702.456C1248 701.639 1246.56 701.231 1244.92 701.231C1243.2 701.231 1241.68 701.692 1240.36 702.616C1239.05 703.539 1238.02 704.758 1237.27 706.273C1236.54 707.789 1236.17 709.446 1236.15 711.245V712.914C1236.15 715.08 1236.53 716.974 1237.27 718.596C1238.03 720.206 1239.1 721.455 1240.49 722.342C1241.87 723.23 1243.51 723.674 1245.4 723.674C1246.69 723.674 1247.82 723.473 1248.8 723.07C1249.78 722.668 1250.6 722.129 1251.26 721.455C1251.94 720.768 1252.45 720.016 1252.79 719.2L1255.79 720.176C1255.38 721.324 1254.7 722.384 1253.75 723.354C1252.81 724.325 1251.64 725.106 1250.23 725.698C1248.84 726.278 1247.23 726.568 1245.4 726.568ZM1273.84 736.795C1271.98 736.795 1270.35 736.553 1268.95 736.067C1267.56 735.594 1266.38 734.943 1265.42 734.114C1264.46 733.286 1263.71 732.357 1263.18 731.327L1265.77 729.622C1266.16 730.309 1266.69 730.983 1267.34 731.646C1268 732.309 1268.86 732.86 1269.91 733.298C1270.98 733.736 1272.28 733.955 1273.84 733.955C1276.25 733.955 1278.2 733.351 1279.68 732.143C1281.17 730.936 1281.91 729.06 1281.91 726.515V720.371H1281.63C1281.26 721.2 1280.74 722.029 1280.05 722.857C1279.36 723.674 1278.46 724.355 1277.35 724.899C1276.25 725.444 1274.88 725.716 1273.25 725.716C1271.07 725.716 1269.14 725.177 1267.44 724.1C1265.76 723.023 1264.44 721.484 1263.47 719.484C1262.51 717.471 1262.03 715.074 1262.03 712.293C1262.03 709.535 1262.5 707.108 1263.43 705.013C1264.38 702.918 1265.7 701.284 1267.39 700.112C1269.08 698.94 1271.05 698.354 1273.3 698.354C1274.97 698.354 1276.36 698.65 1277.46 699.242C1278.56 699.822 1279.44 700.544 1280.1 701.408C1280.78 702.272 1281.3 703.113 1281.68 703.93H1282V698.727H1285.09V726.71C1285.09 729.018 1284.6 730.918 1283.62 732.41C1282.64 733.901 1281.3 735.002 1279.61 735.712C1277.91 736.434 1275.99 736.795 1273.84 736.795ZM1273.62 722.822C1275.37 722.822 1276.87 722.402 1278.11 721.561C1279.36 720.709 1280.31 719.49 1280.97 717.903C1281.64 716.317 1281.97 714.429 1281.97 712.239C1281.97 710.109 1281.64 708.221 1280.99 706.575C1280.34 704.918 1279.39 703.616 1278.15 702.669C1276.92 701.71 1275.41 701.231 1273.62 701.231C1271.8 701.231 1270.26 701.722 1269.01 702.705C1267.75 703.687 1266.8 705.013 1266.16 706.682C1265.53 708.339 1265.21 710.192 1265.21 712.239C1265.21 714.323 1265.53 716.163 1266.18 717.761C1266.83 719.348 1267.79 720.59 1269.04 721.49C1270.3 722.378 1271.82 722.822 1273.62 722.822ZM1293.46 726V698.727H1296.53V702.918H1296.76C1297.31 701.545 1298.25 700.438 1299.6 699.597C1300.96 698.745 1302.5 698.319 1304.22 698.319C1304.48 698.319 1304.77 698.325 1305.09 698.337C1305.41 698.348 1305.68 698.36 1305.89 698.372V701.586C1305.75 701.562 1305.5 701.527 1305.14 701.479C1304.79 701.432 1304.4 701.408 1303.99 701.408C1302.57 701.408 1301.3 701.71 1300.19 702.314C1299.09 702.906 1298.22 703.728 1297.58 704.782C1296.94 705.835 1296.62 707.037 1296.62 708.386V726H1293.46ZM1318.9 726.621C1317.25 726.621 1315.75 726.302 1314.39 725.663C1313.03 725.012 1311.94 724.076 1311.14 722.857C1310.33 721.626 1309.93 720.135 1309.93 718.383C1309.93 717.033 1310.19 715.897 1310.7 714.974C1311.21 714.05 1311.93 713.293 1312.86 712.701C1313.8 712.109 1314.9 711.642 1316.18 711.298C1317.46 710.955 1318.87 710.689 1320.41 710.499C1321.94 710.31 1323.23 710.144 1324.28 710.002C1325.34 709.86 1326.16 709.635 1326.71 709.327C1327.27 709.02 1327.55 708.522 1327.55 707.836V707.197C1327.55 705.338 1326.99 703.876 1325.88 702.811C1324.78 701.734 1323.19 701.195 1321.12 701.195C1319.15 701.195 1317.55 701.627 1316.31 702.491C1315.08 703.356 1314.21 704.374 1313.71 705.545L1310.71 704.462C1311.33 702.971 1312.18 701.781 1313.27 700.893C1314.36 699.994 1315.58 699.349 1316.93 698.958C1318.28 698.556 1319.64 698.354 1321.03 698.354C1322.07 698.354 1323.15 698.491 1324.28 698.763C1325.42 699.035 1326.47 699.509 1327.44 700.183C1328.41 700.846 1329.2 701.775 1329.8 702.971C1330.4 704.155 1330.71 705.658 1330.71 707.481V726H1327.55V721.685H1327.35C1326.97 722.49 1326.41 723.272 1325.66 724.029C1324.92 724.787 1323.98 725.408 1322.86 725.893C1321.73 726.379 1320.41 726.621 1318.9 726.621ZM1319.33 723.727C1321.01 723.727 1322.46 723.354 1323.69 722.609C1324.92 721.863 1325.87 720.875 1326.53 719.643C1327.21 718.401 1327.55 717.033 1327.55 715.542V711.6C1327.31 711.825 1326.91 712.026 1326.36 712.204C1325.81 712.381 1325.18 712.541 1324.46 712.683C1323.75 712.813 1323.04 712.926 1322.33 713.021C1321.62 713.115 1320.98 713.198 1320.41 713.269C1318.87 713.459 1317.56 713.754 1316.47 714.157C1315.38 714.559 1314.54 715.116 1313.96 715.826C1313.38 716.524 1313.09 717.424 1313.09 718.525C1313.09 720.182 1313.68 721.466 1314.87 722.378C1316.05 723.277 1317.54 723.727 1319.33 723.727ZM1339.11 726V698.727H1342.19V702.918H1342.47C1343.01 701.509 1343.92 700.402 1345.19 699.597C1346.46 698.781 1348 698.372 1349.79 698.372C1351.67 698.372 1353.21 698.816 1354.42 699.704C1355.64 700.58 1356.55 701.787 1357.15 703.326H1357.38C1358 701.811 1359 700.609 1360.39 699.722C1361.78 698.822 1363.47 698.372 1365.46 698.372C1368 698.372 1370 699.171 1371.46 700.769C1372.93 702.355 1373.67 704.675 1373.67 707.729V726H1370.51V707.729C1370.51 705.575 1369.96 703.959 1368.85 702.882C1367.75 701.805 1366.3 701.266 1364.5 701.266C1362.42 701.266 1360.82 701.906 1359.69 703.184C1358.57 704.462 1358.01 706.084 1358.01 708.049V726H1354.77V707.445C1354.77 705.599 1354.26 704.107 1353.23 702.971C1352.2 701.835 1350.75 701.266 1348.88 701.266C1347.62 701.266 1346.49 701.574 1345.49 702.19C1344.49 702.805 1343.71 703.663 1343.13 704.764C1342.56 705.853 1342.27 707.108 1342.27 708.528V726H1339.11Z" fill="white"/>
<defs>
<linearGradient id="paint0_linear_1_14" x1="989" y1="0" x2="989" y2="1080" gradientUnits="userSpaceOnUse">
<stop stop-color="#014984"/>
<stop offset="1" stop-color="#002957"/>
</linearGradient>
<linearGradient id="paint1_linear_1_14" x1="397.429" y1="477.43" x2="1190.2" y2="1028.36" gradientUnits="userSpaceOnUse">
<stop stop-color="#63D3FB"/>
<stop offset="0.490385" stop-color="#73D7FA"/>
<stop offset="1" stop-color="#009EFD"/>
</linearGradient>
<linearGradient id="paint2_linear_1_14" x1="853.812" y1="281.761" x2="34.37" y2="562.508" gradientUnits="userSpaceOnUse">
<stop stop-color="#63D3FB"/>
<stop offset="0.427885" stop-color="#6BD5FB"/>
<stop offset="1" stop-color="#009EFD"/>
</linearGradient>
<linearGradient id="paint3_linear_1_14" x1="970.25" y1="436.875" x2="216.341" y2="475.8" gradientUnits="userSpaceOnUse">
<stop stop-color="#01B0FE"/>
<stop offset="0.315121" stop-color="#7CDBFA"/>
<stop offset="0.548077" stop-color="#3EBFFB"/>
<stop offset="1" stop-color="#009EFD"/>
</linearGradient>
<linearGradient id="paint4_linear_1_14" x1="610" y1="133" x2="610" y2="947" gradientUnits="userSpaceOnUse">
<stop stop-color="#02CCFE"/>
<stop offset="1" stop-color="#0091FE"/>
</linearGradient>
</defs>
</svg>
