<svg width="212" height="212" viewBox="0 0 212 212" fill="none" xmlns="http://www.w3.org/2000/svg">
<path d="M8 82.8678C54.7543 75.2488 90.5563 83.0765 115.928 103.192C141.226 123.249 155.225 154.792 160 192.72L149.617 194C145.045 157.686 131.842 129.076 109.386 111.271C87.0033 93.5256 54.4995 85.7823 9.70023 93.0828L8 82.8678Z" fill="#95969B"/>
<path d="M173.618 30.6273C157.801 63.6049 140.083 85.6535 114.683 101.637C89.4903 117.49 57.1499 127.103 12.717 136.089L10.6519 125.878C54.8821 116.933 85.637 107.606 109.135 92.8194C132.426 78.1632 148.996 57.8732 164.225 26.1221L173.618 30.6273Z" fill="#95969B"/>
<path d="M203.887 85.8634C177.572 118.662 153.027 138.692 124.237 150.002C95.5577 161.268 63.2099 163.657 21.7846 162.22L22.1458 151.808C63.1551 153.231 93.7703 150.778 120.428 140.306C146.976 129.877 170.144 111.272 195.762 79.3439L203.887 85.8634Z" fill="#95969B"/>
<path d="M198.978 106C198.978 54.6497 157.35 13.0221 106 13.0221C54.6497 13.0221 13.0221 54.6497 13.0221 106C13.0221 157.35 54.6497 198.978 106 198.978V212C47.4578 212 0 164.542 0 106C0 47.4578 47.4578 0 106 0C164.542 0 212 47.4578 212 106C212 164.542 164.542 212 106 212V198.978C157.35 198.978 198.978 157.35 198.978 106Z" fill="#95969B"/>
<path d="M198.978 106C198.978 54.6497 157.35 13.0221 106 13.0221C54.6497 13.0221 13.0221 54.6497 13.0221 106C13.0221 157.35 54.6497 198.978 106 198.978V212C47.4578 212 0 164.542 0 106C0 47.4578 47.4578 0 106 0C164.542 0 212 47.4578 212 106C212 164.542 164.542 212 106 212V198.978C157.35 198.978 198.978 157.35 198.978 106Z" fill="#95969B"/>
</svg>
